<svg xmlns="http://www.w3.org/2000/svg" xmlns:xlink="http://www.w3.org/1999/xlink" width="500" zoomAndPan="magnify" viewBox="0 0 375 374.999991" height="500" preserveAspectRatio="xMidYMid meet" version="1.0"><defs><clipPath id="2b6ec1faa7"><path d="M 176 30.375 L 183 30.375 L 183 38 L 176 38 Z M 176 30.375 " clip-rule="nonzero"/></clipPath><clipPath id="e79d7c4951"><path d="M 27 242 L 181 242 L 181 344.625 L 27 344.625 Z M 27 242 " clip-rule="nonzero"/></clipPath><clipPath id="5c56df10fe"><path d="M 194 242 L 348 242 L 348 344.625 L 194 344.625 Z M 194 242 " clip-rule="nonzero"/></clipPath></defs><path fill="#7c521b" d="M 224.101562 213.96875 L 325.933594 174.351562 L 256.425781 147.335938 C 252.554688 154 247.78125 159.941406 242.109375 165.253906 C 240.578125 166.695312 239.765625 168.585938 239.765625 170.566406 C 239.765625 179.84375 235.894531 188.214844 229.59375 194.160156 C 224.460938 198.929688 222.660156 206.132812 224.011719 212.976562 C 224.011719 213.246094 224.101562 213.605469 224.101562 213.96875 Z M 224.101562 213.96875 " fill-opacity="1" fill-rule="nonzero"/><path fill="#7c521b" d="M 151.078125 212.886719 C 152.429688 206.042969 150.539062 198.839844 145.496094 194.070312 C 145.226562 193.796875 144.957031 193.527344 144.683594 193.257812 C 138.652344 187.136719 135.320312 179.121094 135.410156 170.65625 C 135.410156 168.675781 134.691406 166.785156 133.25 165.527344 C 127.488281 160.214844 122.625 154 118.664062 147.335938 L 49.152344 174.441406 L 150.898438 214.058594 C 150.898438 213.605469 150.988281 213.246094 151.078125 212.886719 Z M 151.078125 212.886719 " fill-opacity="1" fill-rule="nonzero"/><path fill="#ffa000" d="M 199.609375 51.984375 C 194.386719 51.984375 189.34375 52.707031 184.484375 53.964844 C 185.472656 53.875 186.464844 53.875 187.453125 53.875 C 187.722656 53.875 187.90625 53.875 188.175781 53.875 C 202.3125 54.058594 215.1875 60 224.640625 69.363281 C 234.09375 78.726562 240.039062 91.601562 240.308594 105.738281 C 240.578125 120.6875 234.453125 135.183594 223.558594 145.355469 C 217.796875 150.757812 214.015625 157.960938 212.933594 165.707031 C 212.664062 167.328125 212.574219 168.949219 212.574219 170.476562 C 212.574219 173.359375 210.234375 175.699219 207.351562 175.699219 L 167.734375 175.699219 C 164.855469 175.699219 162.511719 173.359375 162.511719 170.476562 C 162.511719 160.933594 158.550781 151.839844 151.707031 145.445312 C 140.902344 135.453125 134.78125 121.316406 134.78125 106.640625 C 134.78125 92.414062 140.363281 78.996094 150.539062 69.003906 C 151.167969 68.375 151.796875 67.832031 152.429688 67.292969 C 156.03125 64.050781 156.121094 58.46875 152.699219 55.046875 C 149.546875 51.894531 144.414062 51.714844 141.082031 54.777344 C 140.273438 55.496094 139.464844 56.21875 138.742188 57.027344 C 125.328125 70.265625 117.945312 87.910156 117.945312 106.640625 C 117.945312 126 126.136719 144.636719 140.273438 157.78125 C 143.785156 161.023438 145.675781 165.617188 145.675781 170.476562 C 145.585938 182.722656 155.851562 192.449219 168.09375 192.449219 L 207.351562 192.449219 C 219.597656 192.449219 229.503906 182.542969 229.503906 170.296875 C 229.503906 165.527344 231.574219 160.84375 235.175781 157.511719 C 241.566406 151.570312 246.609375 144.546875 250.390625 136.894531 C 254.714844 127.980469 257.054688 118.164062 257.324219 108.171875 C 256.515625 77.105469 231.035156 51.984375 199.609375 51.984375 Z M 199.609375 51.984375 " fill-opacity="1" fill-rule="nonzero"/><path fill="#ffffff" d="M 205.640625 208.023438 L 169.355469 208.023438 C 164.675781 208.023438 160.890625 211.804688 160.890625 216.488281 C 160.890625 221.171875 164.675781 224.953125 169.355469 224.953125 L 205.640625 224.953125 C 210.324219 224.953125 214.105469 221.171875 214.105469 216.488281 C 214.105469 211.804688 210.234375 208.023438 205.640625 208.023438 Z M 205.640625 208.023438 " fill-opacity="1" fill-rule="nonzero"/><path fill="#ffffff" d="M 159 40.550781 L 170.4375 40.550781 L 170.4375 51.984375 L 159 51.984375 Z M 159 40.550781 " fill-opacity="1" fill-rule="nonzero"/><g clip-path="url(#2b6ec1faa7)"><path fill="#ffffff" d="M 176.109375 30.375 L 182.863281 30.375 L 182.863281 37.128906 L 176.109375 37.128906 Z M 176.109375 30.375 " fill-opacity="1" fill-rule="nonzero"/></g><path fill="#ffa000" d="M 176.648438 241.519531 L 26.554688 183.082031 L 5.304688 219.007812 L 155.582031 277.535156 Z M 176.648438 241.519531 " fill-opacity="1" fill-rule="nonzero"/><path fill="#ffa000" d="M 369.695312 219.007812 L 348.445312 183.082031 L 198.347656 241.519531 L 219.417969 277.535156 Z M 369.695312 219.007812 " fill-opacity="1" fill-rule="nonzero"/><g clip-path="url(#e79d7c4951)"><path fill="#ffa000" d="M 151.796875 290.679688 L 27.363281 242.238281 L 27.363281 284.828125 L 180.882812 344.613281 L 180.882812 265.378906 L 168.996094 284.828125 C 165.484375 290.769531 158.191406 293.203125 151.796875 290.679688 Z M 151.796875 290.679688 " fill-opacity="1" fill-rule="nonzero"/></g><g clip-path="url(#5c56df10fe)"><path fill="#ffa000" d="M 223.109375 290.679688 C 216.71875 293.203125 209.425781 290.679688 205.914062 284.828125 L 194.027344 265.378906 L 194.027344 344.613281 L 347.542969 284.828125 L 347.542969 242.238281 Z M 223.109375 290.679688 " fill-opacity="1" fill-rule="nonzero"/></g></svg>
